<?xml version="1.0" encoding="utf-8"?>
<!-- Generator: Adobe Illustrator 16.0.0, SVG Export Plug-In . SVG Version: 6.00 Build 0)  -->
<!DOCTYPE svg PUBLIC "-//W3C//DTD SVG 1.1//EN" "http://www.w3.org/Graphics/SVG/1.1/DTD/svg11.dtd">
<svg version="1.1" id="Layer_1" xmlns="http://www.w3.org/2000/svg" xmlns:xlink="http://www.w3.org/1999/xlink" x="0px" y="0px"
	 width="66.189px" height="61.604px" viewBox="0 0 66.189 61.604" enable-background="new 0 0 66.189 61.604" xml:space="preserve">
<g>
	<text transform="matrix(1 0 0 1 58.0488 11.1211)" fill="#F9D610" font-family="'AdventPro-Light'" font-size="11">Ξ</text>
	<g>
		<polyline points="3.574,40.187 3.574,42.474 22.153,42.474 22.153,40.181 6.094,40.181 		"/>
		<polyline points="6.094,21.823 16.559,21.823 17.397,19.362 6.094,19.362 6.094,5.651 23.732,5.69 22.266,3.301 3.574,3.301 
			3.574,21.847 		"/>
		<g>
			<path d="M22.266,3.301h2.798l10.351,16.844L45.768,3.301h2.911l-11.752,19.25l12.647,19.863l-3.078,0.059"/>
		</g>
		<path d="M6.094,40.181"/>
	</g>
	<polyline points="19.866,58.761 22.153,58.761 22.153,40.181 19.86,40.181 19.86,56.241 	"/>
	<rect x="7.319" y="45.073" fill="#F9D610" width="9.942" height="9.941"/>
</g>
</svg>
